<svg id="visual" viewBox="0 0 960 540" width="960" height="540" xmlns="http://www.w3.org/2000/svg" xmlns:xlink="http://www.w3.org/1999/xlink" version="1.1"><rect x="0" y="0" width="960" height="540" fill="#f5f5f5"></rect><path d="M0 246L20 243.5C40 241 80 236 120 241.8C160 247.7 200 264.3 240 272.5C280 280.7 320 280.3 360 282.8C400 285.3 440 290.7 480 288.5C520 286.3 560 276.7 600 266.7C640 256.7 680 246.3 720 239.7C760 233 800 230 840 232.8C880 235.7 920 244.3 940 248.7L960 253L960 541L940 541C920 541 880 541 840 541C800 541 760 541 720 541C680 541 640 541 600 541C560 541 520 541 480 541C440 541 400 541 360 541C320 541 280 541 240 541C200 541 160 541 120 541C80 541 40 541 20 541L0 541Z" fill="#e3cece"></path><path d="M0 333L20 327.5C40 322 80 311 120 303.2C160 295.3 200 290.7 240 286.8C280 283 320 280 360 283.2C400 286.3 440 295.7 480 298.3C520 301 560 297 600 294C640 291 680 289 720 298.3C760 307.7 800 328.3 840 330.8C880 333.3 920 317.7 940 309.8L960 302L960 541L940 541C920 541 880 541 840 541C800 541 760 541 720 541C680 541 640 541 600 541C560 541 520 541 480 541C440 541 400 541 360 541C320 541 280 541 240 541C200 541 160 541 120 541C80 541 40 541 20 541L0 541Z" fill="#e7d7e0"></path><path d="M0 377L20 374.7C40 372.3 80 367.7 120 370.3C160 373 200 383 240 389.8C280 396.7 320 400.3 360 400.2C400 400 440 396 480 390.8C520 385.7 560 379.3 600 378.5C640 377.7 680 382.3 720 374.7C760 367 800 347 840 335.8C880 324.7 920 322.3 940 321.2L960 320L960 541L940 541C920 541 880 541 840 541C800 541 760 541 720 541C680 541 640 541 600 541C560 541 520 541 480 541C440 541 400 541 360 541C320 541 280 541 240 541C200 541 160 541 120 541C80 541 40 541 20 541L0 541Z" fill="#e6e2f0"></path><path d="M0 437L20 428.5C40 420 80 403 120 393.8C160 384.7 200 383.3 240 389.7C280 396 320 410 360 414.5C400 419 440 414 480 412.5C520 411 560 413 600 409.8C640 406.7 680 398.3 720 401C760 403.7 800 417.3 840 419.3C880 421.3 920 411.7 940 406.8L960 402L960 541L940 541C920 541 880 541 840 541C800 541 760 541 720 541C680 541 640 541 600 541C560 541 520 541 480 541C440 541 400 541 360 541C320 541 280 541 240 541C200 541 160 541 120 541C80 541 40 541 20 541L0 541Z" fill="#e3eefb"></path><path d="M0 495L20 494.2C40 493.3 80 491.7 120 486.8C160 482 200 474 240 470.3C280 466.7 320 467.3 360 464.5C400 461.7 440 455.3 480 453.5C520 451.7 560 454.3 600 462.8C640 471.3 680 485.7 720 487.3C760 489 800 478 840 470.3C880 462.7 920 458.3 940 456.2L960 454L960 541L940 541C920 541 880 541 840 541C800 541 760 541 720 541C680 541 640 541 600 541C560 541 520 541 480 541C440 541 400 541 360 541C320 541 280 541 240 541C200 541 160 541 120 541C80 541 40 541 20 541L0 541Z" fill="#e4f9ff"></path></svg>