<svg id="visual" viewBox="0 0 675 800" width="675" height="800" xmlns="http://www.w3.org/2000/svg" xmlns:xlink="http://www.w3.org/1999/xlink" version="1.1"><rect x="0" y="0" width="675" height="800" fill="#f5f5f5"></rect><path d="M0 365L14 361.2C28 357.3 56 349.7 84.2 358.3C112.3 367 140.7 392 168.8 404.3C197 416.7 225 416.3 253.2 420C281.3 423.7 309.7 431.3 337.8 428C366 424.7 394 410.3 422 395.5C450 380.7 478 365.3 506.2 355.5C534.3 345.7 562.7 341.3 590.8 345.5C619 349.7 647 362.3 661 368.7L675 375L675 801L661 801C647 801 619 801 590.8 801C562.7 801 534.3 801 506.2 801C478 801 450 801 422 801C394 801 366 801 337.8 801C309.7 801 281.3 801 253.2 801C225 801 197 801 168.8 801C140.7 801 112.3 801 84.2 801C56 801 28 801 14 801L0 801Z" fill="#e3cece"></path><path d="M0 494L14 486C28 478 56 462 84.2 450.5C112.3 439 140.7 432 168.8 426.2C197 420.3 225 415.7 253.2 420.3C281.3 425 309.7 439 337.8 442.8C366 446.7 394 440.3 422 435.7C450 431 478 428 506.2 442C534.3 456 562.7 487 590.8 490.7C619 494.3 647 470.7 661 458.8L675 447L675 801L661 801C647 801 619 801 590.8 801C562.7 801 534.3 801 506.2 801C478 801 450 801 422 801C394 801 366 801 337.8 801C309.7 801 281.3 801 253.2 801C225 801 197 801 168.8 801C140.7 801 112.3 801 84.2 801C56 801 28 801 14 801L0 801Z" fill="#e7d7e0"></path><path d="M0 559L14 555.5C28 552 56 545 84.2 549C112.3 553 140.7 568 168.8 578.2C197 588.3 225 593.7 253.2 593.3C281.3 593 309.7 587 337.8 579.3C366 571.7 394 562.3 422 561.2C450 560 478 567 506.2 555.7C534.3 544.3 562.7 514.7 590.8 498C619 481.3 647 477.7 661 475.8L675 474L675 801L661 801C647 801 619 801 590.8 801C562.7 801 534.3 801 506.2 801C478 801 450 801 422 801C394 801 366 801 337.8 801C309.7 801 281.3 801 253.2 801C225 801 197 801 168.8 801C140.7 801 112.3 801 84.2 801C56 801 28 801 14 801L0 801Z" fill="#e6e2f0"></path><path d="M0 648L14 635.5C28 623 56 598 84.2 584.5C112.3 571 140.7 569 168.8 578.3C197 587.7 225 608.3 253.2 615C281.3 621.7 309.7 614.3 337.8 612C366 609.7 394 612.3 422 607.5C450 602.7 478 590.3 506.2 594.5C534.3 598.7 562.7 619.3 590.8 622.5C619 625.7 647 611.3 661 604.2L675 597L675 801L661 801C647 801 619 801 590.8 801C562.7 801 534.3 801 506.2 801C478 801 450 801 422 801C394 801 366 801 337.8 801C309.7 801 281.3 801 253.2 801C225 801 197 801 168.8 801C140.7 801 112.3 801 84.2 801C56 801 28 801 14 801L0 801Z" fill="#e3eefb"></path><path d="M0 733L14 731.8C28 730.7 56 728.3 84.2 721.3C112.3 714.3 140.7 702.7 168.8 697.3C197 692 225 693 253.2 688.7C281.3 684.3 309.7 674.7 337.8 671.8C366 669 394 673 422 685.7C450 698.3 478 719.7 506.2 722.3C534.3 725 562.7 709 590.8 697.7C619 686.3 647 679.7 661 676.3L675 673L675 801L661 801C647 801 619 801 590.8 801C562.7 801 534.3 801 506.2 801C478 801 450 801 422 801C394 801 366 801 337.8 801C309.7 801 281.3 801 253.2 801C225 801 197 801 168.8 801C140.7 801 112.3 801 84.2 801C56 801 28 801 14 801L0 801Z" fill="#e4f9ff"></path></svg>